<svg width="219" height="133" viewBox="0 0 219 133" fill="none" xmlns="http://www.w3.org/2000/svg">
<path d="M8.9852 36.7856L1.68952 54.8327H0L22.1942 0H24.1909L45.8475 54.8327H44.158L36.9391 36.7856H8.9852ZM36.3248 35.2496L23.2694 1.53593H23.1158L9.59957 35.2496H36.3248Z" fill="black"/>
<path d="M72.5811 15.3593H74.2707L59.3721 54.8327H57.4522L41.2481 15.3593H43.0145L58.297 53.2968H58.4506L72.5811 15.3593Z" fill="black"/>
<path d="M77.5135 27.57C77.6159 25.7268 77.9999 24.0117 78.6655 22.4246C79.331 20.7863 80.2782 19.3783 81.5069 18.2008C82.7869 17.0232 84.3228 16.1017 86.1147 15.4361C87.9578 14.7705 90.1082 14.4378 92.5656 14.4378C94.3064 14.4378 95.9447 14.6169 97.4806 14.9753C99.0677 15.3337 100.45 15.9737 101.628 16.8952C102.805 17.7656 103.752 18.9176 104.469 20.3511C105.186 21.7846 105.57 23.5765 105.621 25.7268V50.8393C105.621 51.6073 105.775 52.1705 106.082 52.5288C106.389 52.8872 106.799 53.1432 107.311 53.2968C107.823 53.3992 108.36 53.4504 108.923 53.4504C109.538 53.3992 110.101 53.348 110.613 53.2968V54.8327H108.309C107.183 54.8327 106.184 54.5768 105.314 54.0648C104.495 53.5016 104.085 52.4776 104.085 50.9929V45.8475H103.932C103.522 47.1275 102.856 48.3562 101.935 49.5338C101.064 50.7113 99.9381 51.7609 98.5558 52.6824C97.2246 53.604 95.6887 54.3208 93.948 54.8327C92.2073 55.3959 90.3129 55.6775 88.265 55.6775C84.2716 55.6775 81.0718 54.8071 78.6655 53.0664C76.2592 51.2745 75.056 48.6122 75.056 45.0796C75.056 42.6221 75.44 40.651 76.208 39.1662C77.0271 37.6815 78.0767 36.5296 79.3566 35.7104C80.6366 34.84 82.0957 34.2513 83.734 33.9441C85.3724 33.5857 87.0107 33.3553 88.649 33.2529C91.3625 33.0993 93.692 32.9713 95.6375 32.8689C97.583 32.7153 99.1701 32.4593 100.399 32.101C101.679 31.6914 102.6 31.1026 103.164 30.3346C103.778 29.5155 104.085 28.3635 104.085 26.8788C104.085 25.7012 103.983 24.4725 103.778 23.1926C103.573 21.9126 103.061 20.7351 102.242 19.6599C101.474 18.5848 100.322 17.7144 98.7862 17.0488C97.2502 16.3321 95.1767 15.9737 92.5656 15.9737C88.4186 15.9737 85.1932 16.9976 82.8893 19.0455C80.5854 21.0423 79.3054 23.8837 79.0494 27.57H77.5135ZM104.085 31.6402H103.932C103.42 32.3569 102.626 32.9201 101.551 33.3297C100.476 33.6881 99.2469 33.9697 97.8646 34.1745C96.4823 34.3793 94.9719 34.5073 93.3336 34.5585C91.7465 34.6096 90.185 34.6864 88.649 34.7888C87.1131 34.8912 85.6028 35.096 84.118 35.4032C82.6845 35.6592 81.4045 36.1712 80.2782 36.9391C79.1518 37.6559 78.2559 38.6799 77.5903 40.011C76.9247 41.2909 76.592 42.9805 76.592 45.0796C76.592 46.2059 76.7712 47.3323 77.1295 48.4586C77.5391 49.5338 78.2047 50.5065 79.1262 51.3769C80.0478 52.1961 81.2253 52.8872 82.6589 53.4504C84.1436 53.9624 85.9611 54.2184 88.1114 54.2184C90.6713 54.2184 92.9496 53.7832 94.9463 52.9128C96.943 52.0425 98.607 50.9161 99.9381 49.5338C101.32 48.1002 102.344 46.4619 103.01 44.6188C103.727 42.7757 104.085 40.8814 104.085 38.9359V31.6402Z" fill="black"/>
<path d="M39.2398 78.3421C39.1374 75.5262 38.5998 73.1711 37.627 71.2768C36.7055 69.3313 35.4511 67.7698 33.864 66.5922C32.3281 65.3635 30.485 64.4931 28.3347 63.9811C26.1844 63.4691 23.8805 63.2132 21.423 63.2132C19.5287 63.2132 17.5575 63.4179 15.5096 63.8275C13.4617 64.1859 11.593 64.8515 9.90349 65.8242C8.26516 66.797 6.90842 68.1025 5.83327 69.7409C4.75812 71.328 4.22054 73.3503 4.22054 75.8078C4.22054 78.2653 4.75812 80.2364 5.83327 81.7211C6.95962 83.2059 8.39315 84.409 10.1339 85.3306C11.9258 86.2521 13.9481 86.9689 16.2008 87.4809C18.4535 87.9929 20.7574 88.5304 23.1125 89.0936C25.6724 89.7592 28.0787 90.3991 30.3314 91.0135C32.6353 91.6279 34.632 92.447 36.3215 93.471C38.011 94.495 39.3422 95.8517 40.3149 97.5412C41.3389 99.2307 41.8509 101.509 41.8509 104.376C41.8509 106.987 41.2877 109.214 40.1613 111.057C39.035 112.901 37.5502 114.436 35.7071 115.665C33.864 116.843 31.7905 117.688 29.4866 118.199C27.1827 118.763 24.8532 119.044 22.4981 119.044C19.3751 119.044 16.4824 118.686 13.8201 117.969C11.209 117.252 8.93073 116.126 6.98522 114.59C5.0909 113.003 3.60617 110.981 2.53102 108.523C1.50706 106.066 1.02069 103.096 1.07188 99.6147H2.60781C2.60781 102.891 3.09419 105.682 4.06695 107.986C5.03971 110.238 6.39644 112.081 8.13717 113.515C9.92908 114.948 12.0282 115.998 14.4345 116.664C16.892 117.278 19.5799 117.585 22.4981 117.585C24.6484 117.585 26.7731 117.355 28.8722 116.894C31.0225 116.382 32.9425 115.588 34.632 114.513C36.3215 113.438 37.6782 112.056 38.7022 110.366C39.7773 108.677 40.3149 106.654 40.3149 104.299C40.3149 101.535 39.7006 99.3587 38.4718 97.7716C37.2943 96.1333 35.7583 94.8533 33.864 93.9318C32.0209 92.959 29.9474 92.2423 27.6435 91.7815C25.3908 91.2695 23.2149 90.7575 21.1158 90.2455C18.9143 89.7336 16.7128 89.196 14.5113 88.6328C12.3098 88.0696 10.3131 87.3017 8.52115 86.3289C6.78043 85.305 5.37249 83.9738 4.29734 82.3355C3.22219 80.646 2.68461 78.4701 2.68461 75.8078C2.68461 73.0943 3.24779 70.8416 4.37414 69.0497C5.50048 67.2066 6.95962 65.7474 8.75154 64.6723C10.5435 63.5971 12.5402 62.8292 14.7417 62.3684C16.9944 61.9076 19.2215 61.6772 21.423 61.6772C24.1364 61.6772 26.6195 61.9844 28.8722 62.5988C31.1761 63.162 33.1728 64.1091 34.8624 65.4403C36.6031 66.7202 37.9854 68.4353 39.0094 70.5856C40.0333 72.6847 40.6221 75.2702 40.7757 78.3421H39.2398Z" fill="black"/>
<path d="M53.8563 79.878V110.136C53.8563 111.621 54.0099 112.773 54.3171 113.592C54.6755 114.411 55.1106 115.025 55.6226 115.435C56.1346 115.844 56.6978 116.1 57.3122 116.203C57.9265 116.254 58.5409 116.28 59.1553 116.28C59.9232 116.28 60.6144 116.28 61.2288 116.28C61.8432 116.228 62.2783 116.152 62.5343 116.049V117.585C62.0735 117.636 61.6128 117.688 61.152 117.739C60.7424 117.79 59.9488 117.816 58.7713 117.816C56.9794 117.816 55.4434 117.304 54.1635 116.28C52.9347 115.204 52.3204 113.259 52.3204 110.443V79.878H45.1015V78.3421H52.3204V65.901H53.8563V78.3421H62.7647V79.878H53.8563Z" fill="black"/>
<path d="M67.3887 98.386C67.4399 101.048 67.7471 103.531 68.3103 105.835C68.9246 108.088 69.8462 110.059 71.0749 111.749C72.3037 113.438 73.8908 114.769 75.8363 115.742C77.7818 116.715 80.1625 117.201 82.9784 117.201C87.1254 117.201 90.5557 116.126 93.2691 113.976C96.0338 111.774 97.7489 108.498 98.4145 104.146H99.9504C99.3873 108.754 97.5697 112.337 94.4979 114.897C91.426 117.406 87.6374 118.66 83.132 118.66C80.0601 118.711 77.4234 118.225 75.2219 117.201C73.0716 116.177 71.3053 114.744 69.923 112.901C68.5406 111.006 67.5167 108.805 66.8511 106.296C66.1856 103.736 65.8528 100.997 65.8528 98.0788C65.8528 94.8021 66.3391 91.8839 67.3119 89.324C68.2847 86.7641 69.5646 84.6138 71.1517 82.8731C72.7389 81.0812 74.582 79.7244 76.6811 78.8029C78.7802 77.8813 80.9305 77.4205 83.132 77.4205C86.2039 77.4205 88.8405 78.0093 91.042 79.1868C93.2947 80.3644 95.1123 81.9259 96.4946 83.8714C97.9281 85.8169 98.9521 88.044 99.5665 90.5527C100.232 93.0614 100.514 95.6725 100.411 98.386H67.3887ZM98.8753 96.8501C98.8753 94.4438 98.5425 92.1655 97.8769 90.0152C97.2114 87.8137 96.213 85.8937 94.8819 84.2554C93.6019 82.6171 91.9892 81.3372 90.0437 80.4156C88.0982 79.4428 85.8455 78.9565 83.2856 78.9565C81.1353 78.9565 79.113 79.366 77.2187 80.1852C75.3755 81.0044 73.7372 82.2075 72.3037 83.7946C70.9213 85.3306 69.795 87.1993 68.9246 89.4008C68.0543 91.6023 67.5423 94.0854 67.3887 96.8501H98.8753Z" fill="black"/>
<path d="M108.091 117.816H106.555V78.3421H108.091V88.0952H108.244C108.603 86.6105 109.166 85.2282 109.934 83.9482C110.702 82.6171 111.726 81.4651 113.006 80.4924C114.286 79.5196 115.796 78.7517 117.537 78.1885C119.329 77.6253 121.402 77.3693 123.757 77.4205V78.9565C121.044 78.8029 118.689 79.1868 116.692 80.1084C114.747 80.9788 113.134 82.2075 111.854 83.7946C110.574 85.3306 109.627 87.1225 109.012 89.1704C108.398 91.2183 108.091 93.3174 108.091 95.4677V117.816Z" fill="black"/>
<path d="M126.429 62.9828H127.965V117.816H126.429V62.9828Z" fill="black"/>
<path d="M137.94 70.7392H136.404V62.9828H137.94V70.7392ZM137.94 117.816H136.404V78.3421H137.94V117.816Z" fill="black"/>
<path d="M146.378 78.3421H147.914V88.0952H148.068C148.426 86.5593 148.989 85.1514 149.757 83.8714C150.576 82.5915 151.575 81.4651 152.752 80.4924C153.981 79.5196 155.389 78.7773 156.976 78.2653C158.563 77.7021 160.33 77.4205 162.275 77.4205C164.323 77.4205 166.192 77.7277 167.881 78.3421C169.622 78.9565 171.107 79.878 172.335 81.1068C173.615 82.2843 174.588 83.769 175.254 85.561C175.97 87.3017 176.329 89.324 176.329 91.6279V117.816H174.793V91.8583C174.793 89.5544 174.46 87.6089 173.795 86.0217C173.129 84.3834 172.207 83.0523 171.03 82.0283C169.904 80.9532 168.572 80.1852 167.036 79.7244C165.552 79.2124 163.965 78.9565 162.275 78.9565C159.92 78.9565 157.846 79.4172 156.055 80.3388C154.263 81.2092 152.752 82.4123 151.524 83.9482C150.346 85.433 149.45 87.1737 148.836 89.1704C148.221 91.1671 147.914 93.2662 147.914 95.4677V117.816H146.378V78.3421Z" fill="black"/>
<path d="M214.804 104.606H214.65C214.241 106.347 213.498 107.909 212.423 109.291C211.399 110.673 210.17 111.851 208.737 112.824C207.355 113.745 205.819 114.462 204.129 114.974C202.491 115.435 200.827 115.665 199.137 115.665C196.373 115.665 193.966 115.153 191.918 114.129C189.871 113.105 188.155 111.749 186.773 110.059C185.442 108.318 184.418 106.296 183.701 103.992C183.036 101.688 182.703 99.2819 182.703 96.7733C182.703 94.111 183.061 91.6279 183.778 89.324C184.495 86.9689 185.57 84.921 187.004 83.1803C188.437 81.3883 190.203 79.9804 192.302 78.9565C194.453 77.9325 196.91 77.4205 199.675 77.4205C201.569 77.4205 203.336 77.7277 204.974 78.3421C206.612 78.9053 208.071 79.6988 209.351 80.7228C210.682 81.7467 211.783 82.9499 212.654 84.3322C213.575 85.7146 214.241 87.2249 214.65 88.8632H214.804V78.3421H216.34V116.51C216.34 121.937 214.906 125.905 212.039 128.413C209.172 130.973 205.128 132.253 199.905 132.253C197.909 132.253 196.014 132.023 194.222 131.562C192.43 131.101 190.843 130.359 189.461 129.335C188.079 128.362 186.978 127.082 186.159 125.495C185.34 123.959 184.904 122.065 184.853 119.812H186.389C186.44 121.758 186.824 123.422 187.541 124.804C188.309 126.186 189.307 127.313 190.536 128.183C191.765 129.053 193.173 129.693 194.76 130.103C196.398 130.513 198.088 130.717 199.829 130.717C204.641 130.717 208.327 129.565 210.887 127.261C213.498 125.009 214.804 121.425 214.804 116.51V104.606ZM214.727 96.7733C214.727 94.5206 214.394 92.3191 213.729 90.1688C213.114 88.0184 212.167 86.1241 210.887 84.4858C209.659 82.7963 208.097 81.4651 206.203 80.4924C204.308 79.4684 202.132 78.9565 199.675 78.9565C197.115 78.9565 194.862 79.4428 192.917 80.4156C191.023 81.3372 189.41 82.6171 188.079 84.2554C186.799 85.8937 185.826 87.7881 185.16 89.9384C184.546 92.0887 184.239 94.367 184.239 96.7733C184.239 99.2307 184.546 101.509 185.16 103.608C185.826 105.707 186.773 107.55 188.002 109.137C189.282 110.673 190.843 111.902 192.686 112.824C194.53 113.694 196.654 114.129 199.061 114.129C201.62 114.129 203.873 113.669 205.819 112.747C207.764 111.825 209.377 110.597 210.657 109.061C211.988 107.474 212.986 105.63 213.652 103.531C214.369 101.381 214.727 99.1283 214.727 96.7733Z" fill="black"/>
<path d="M131.012 55.6801L153.808 16.6845L154.93 17.3405L132.134 56.3361L131.012 55.6801Z" fill="black"/>
<path d="M194.609 55.6801L217.406 16.6845L218.528 17.3405L195.732 56.3361L194.609 55.6801Z" fill="black"/>
<path d="M162.809 55.6801L185.605 16.6845L186.727 17.3405L163.931 56.3361L162.809 55.6801Z" fill="black"/>
</svg>
